<?xml version="1.0" encoding="utf-8"?>
<!-- Generator: Adobe Illustrator 20.1.0, SVG Export Plug-In . SVG Version: 6.00 Build 0)  -->
<svg version="1.1" id="Layer_1" xmlns="http://www.w3.org/2000/svg" xmlns:xlink="http://www.w3.org/1999/xlink" x="0px" y="0px"
	 viewBox="0 0 83.1 20.2" style="enable-background:new 0 0 83.1 20.2;" xml:space="preserve">
<style type="text/css">
	.st0{opacity:0.9;}
	.st1{fill:#F90000;}
	.st2{fill:none;}
	.st3{fill:#191919;}
	.st4{fill:#0059FF;}
	.st5{fill:#9BCF8E;}
	.st6{fill:#E50000;}
	.st7{fill:#FF4B00;}
	.st8{fill:#009BEF;}
	.st9{fill:#FFFFFF;}
	.st10{fill:#020101;}
	.st11{fill:#F4B720;}
	.st12{fill:#003A2F;}
	.st13{fill:#3A3A3A;}
	.st14{fill:#2D74DA;}
	.st15{fill:#FDD600;}
</style>
<g>
	<g>
		<g>
			<g>
				<path class="st12" d="M59.8,13.9c0,0.9-0.2,1.7-0.5,2.5c-0.4,0.8-0.9,1.5-1.5,2c-0.7,0.6-1.6,1-2.5,1.3c-1,0.3-2.1,0.5-3.4,0.5
					c-1.1,0-2.1-0.1-3.1-0.4c-1-0.2-1.9-0.7-2.6-1.2c-0.8-0.5-1.4-1.2-1.9-2.2c-0.5-0.9-0.7-1.9-0.7-3.1V13h4.5v0.3
					c0,0.6,0.1,1.1,0.3,1.5c0.2,0.4,0.5,0.7,0.8,1c0.3,0.2,0.8,0.4,1.2,0.6c0.8,0.2,1.7,0.2,2.6,0.1c0.4-0.1,0.8-0.2,1.1-0.3
					c0.3-0.2,0.6-0.4,0.8-0.7c0.2-0.3,0.3-0.6,0.3-1c0-0.4-0.2-0.8-0.4-1c-0.3-0.3-0.7-0.5-1.2-0.7c-0.6-0.2-1.2-0.4-1.7-0.5
					c-0.7-0.2-1.4-0.3-2-0.5c-0.7-0.2-1.4-0.4-2-0.6c-0.7-0.3-1.3-0.6-1.9-1c-0.5-0.4-1-1-1.3-1.6C44.4,7.7,44.2,7,44.2,6
					c0-1,0.2-1.9,0.7-2.6c0.4-0.7,1-1.4,1.7-1.9c0.7-0.5,1.4-0.8,2.3-1.1c1.7-0.5,3.5-0.5,5.4,0c0.9,0.2,1.8,0.6,2.5,1.1
					c0.7,0.5,1.3,1.2,1.7,2c0.4,0.8,0.6,1.7,0.6,2.9v0.3h-4.5V6.4c0-0.5-0.2-1-0.3-1.3c-0.2-0.3-0.4-0.5-0.7-0.7
					c-0.3-0.2-0.6-0.3-1-0.4c-0.4-0.1-0.9-0.1-1.4-0.1c-0.3,0-0.6,0-0.9,0.1C50,4,49.8,4.1,49.5,4.3c-0.2,0.1-0.4,0.3-0.6,0.6
					c-0.1,0.2-0.2,0.5-0.2,0.8c0,0.3,0,0.6,0.2,0.7c0.1,0.2,0.3,0.4,0.7,0.5c0.4,0.2,1,0.4,1.7,0.5c0.6,0.2,1.4,0.4,2.3,0.6l0.5,0.1
					c0.3,0.1,0.8,0.2,1.5,0.4c0.6,0.2,1.3,0.5,1.9,0.9c0.7,0.4,1.2,1,1.7,1.7C59.6,11.9,59.8,12.8,59.8,13.9z"/>
			</g>
		</g>
		<path class="st12" d="M21.8,5.3c-0.6-1.2-1.4-2.1-2.4-2.9c-1-0.7-2.1-1.2-3.4-1.5c-1.3-0.3-2.6-0.5-3.9-0.5H5.4v7.3H0v4h5.4V19
			h6.9c1.3,0,2.5-0.2,3.7-0.5c1.2-0.4,2.4-0.9,3.3-1.7c1-0.8,1.8-1.7,2.4-2.9c0.6-1.2,0.9-2.6,0.9-4.2C22.7,8,22.4,6.5,21.8,5.3z
			 M17.6,12.3c-0.3,0.7-0.8,1.3-1.4,1.7c-0.6,0.4-1.2,0.7-2,0.9c-0.7,0.2-1.5,0.3-2.3,0.3H9.8V4.3H12c0.8,0,1.5,0.1,2.2,0.3
			C15,4.8,15.6,5,16.2,5.5c0.6,0.4,1,1,1.4,1.7c0.3,0.7,0.5,1.5,0.5,2.6C18.1,10.7,17.9,11.6,17.6,12.3z"/>
		<g>
			<g>
				<g>
					<path class="st12" d="M40.6,4.4c-0.4-0.9-0.9-1.7-1.6-2.4s-1.5-1.2-2.5-1.5c-1-0.4-2.1-0.6-3.3-0.6C32.1,0,31,0.2,30,0.6
						c-1,0.3-1.8,0.9-2.5,1.5c-0.7,0.7-1.2,1.4-1.6,2.4c-0.4,0.9-0.6,1.9-0.6,3V19h4.5v-7.3h6.9V19h4.4V7.5
						C41.2,6.4,41,5.4,40.6,4.4z M29.8,7.8c0-0.5,0.1-0.9,0.2-1.4c0.1-0.4,0.3-0.8,0.6-1.2c0.3-0.4,0.6-0.7,1.1-0.9
						c0.4-0.2,1-0.3,1.6-0.3c0.6,0,1.2,0.1,1.6,0.3c0.5,0.2,0.8,0.5,1.1,0.9c0.3,0.3,0.5,0.8,0.6,1.2s0.2,0.9,0.2,1.4H29.8z"/>
				</g>
			</g>
		</g>
		<polygon class="st12" points="83.1,7.8 83.1,11.8 77.7,11.8 77.7,19 73.4,19 73.4,11.8 66.5,11.8 66.5,19 62.3,19 62.3,0.6 
			66.5,0.6 66.5,7.8 73.4,7.8 73.4,0.6 77.7,0.6 77.7,7.8 		"/>
	</g>
</g>
</svg>
