<?xml version="1.0" encoding="utf-8"?>
<!-- Generator: Adobe Illustrator 20.1.0, SVG Export Plug-In . SVG Version: 6.00 Build 0)  -->
<svg version="1.1" id="Layer_1" xmlns="http://www.w3.org/2000/svg" xmlns:xlink="http://www.w3.org/1999/xlink" x="0px" y="0px"
	 viewBox="0 0 99.3 99.3" style="enable-background:new 0 0 99.3 99.3;" xml:space="preserve">
<style type="text/css">
	.st0{opacity:0.9;}
	.st1{fill:#F90000;}
	.st2{fill:none;}
	.st3{fill:#191919;}
	.st4{fill:#0059FF;}
	.st5{fill:#9BCF8E;}
	.st6{fill:#E50000;}
	.st7{fill:#FF4B00;}
	.st8{fill:#009BEF;}
	.st9{fill:#FFFFFF;}
	.st10{fill:#020101;}
	.st11{fill:#F4B720;}
	.st12{fill:#003A2F;}
	.st13{fill:#3A3A3A;}
	.st14{fill:#2D74DA;}
	.st15{fill:#FDD600;}
</style>
<rect class="st12" width="99.3" height="99.3"/>
<g>
	<g>
		<g>
			<g>
				<path class="st9" d="M67.9,53.5c0,0.9-0.2,1.7-0.5,2.5c-0.4,0.8-0.9,1.5-1.5,2c-0.7,0.6-1.6,1-2.5,1.3c-1,0.3-2.1,0.5-3.4,0.5
					c-1.1,0-2.1-0.1-3.1-0.4c-1-0.2-1.9-0.7-2.6-1.2c-0.8-0.5-1.4-1.2-1.9-2.2c-0.5-0.9-0.7-1.9-0.7-3.1v-0.3h4.5v0.3
					c0,0.6,0.1,1.1,0.3,1.5c0.2,0.4,0.5,0.7,0.8,1c0.3,0.2,0.8,0.4,1.2,0.6c0.8,0.2,1.7,0.2,2.6,0.1c0.4-0.1,0.8-0.2,1.1-0.3
					c0.3-0.2,0.6-0.4,0.8-0.7c0.2-0.3,0.3-0.6,0.3-1c0-0.4-0.2-0.8-0.4-1c-0.3-0.3-0.7-0.5-1.2-0.7c-0.6-0.2-1.2-0.4-1.7-0.5
					c-0.7-0.2-1.4-0.3-2-0.5c-0.7-0.2-1.4-0.4-2-0.6c-0.7-0.3-1.3-0.6-1.9-1c-0.5-0.4-1-1-1.3-1.6c-0.3-0.6-0.5-1.4-0.5-2.3
					c0-1,0.2-1.9,0.7-2.6c0.4-0.7,1-1.4,1.7-1.9c0.7-0.5,1.4-0.8,2.3-1.1c1.7-0.5,3.5-0.5,5.4,0c0.9,0.2,1.8,0.6,2.5,1.1
					c0.7,0.5,1.3,1.2,1.7,2c0.4,0.8,0.6,1.7,0.6,2.9v0.3h-4.5V46c0-0.5-0.2-1-0.3-1.3c-0.2-0.3-0.4-0.5-0.7-0.7
					c-0.3-0.2-0.6-0.3-1-0.4c-0.4-0.1-0.9-0.1-1.4-0.1c-0.3,0-0.6,0-0.9,0.1c-0.3,0.1-0.6,0.2-0.8,0.3c-0.2,0.1-0.4,0.3-0.6,0.6
					c-0.1,0.2-0.2,0.5-0.2,0.8c0,0.3,0,0.6,0.2,0.7c0.1,0.2,0.3,0.4,0.7,0.5c0.4,0.2,1,0.4,1.7,0.5c0.6,0.2,1.4,0.4,2.3,0.6l0.5,0.1
					c0.3,0.1,0.8,0.2,1.5,0.4c0.6,0.2,1.3,0.5,1.9,0.9c0.7,0.4,1.2,1,1.7,1.7C67.7,51.5,67.9,52.4,67.9,53.5z"/>
			</g>
		</g>
		<path class="st9" d="M29.9,44.9c-0.6-1.2-1.4-2.1-2.4-2.9c-1-0.7-2.1-1.2-3.4-1.5c-1.3-0.3-2.6-0.5-3.9-0.5h-6.7v7.3H8.1v4h5.4
			v7.2h6.9c1.3,0,2.5-0.2,3.7-0.5c1.2-0.4,2.4-0.9,3.3-1.7c1-0.8,1.8-1.7,2.4-2.9c0.6-1.2,0.9-2.6,0.9-4.2
			C30.8,47.5,30.5,46,29.9,44.9z M25.6,51.8c-0.3,0.7-0.8,1.3-1.4,1.7c-0.6,0.4-1.2,0.7-2,0.9c-0.7,0.2-1.5,0.3-2.3,0.3h-2.1V43.9
			h2.2c0.8,0,1.5,0.1,2.2,0.3c0.7,0.2,1.4,0.5,1.9,0.9c0.6,0.4,1,1,1.4,1.7c0.3,0.7,0.5,1.5,0.5,2.6C26.1,50.3,26,51.1,25.6,51.8z"
			/>
		<g>
			<g>
				<g>
					<path class="st9" d="M48.7,44c-0.4-0.9-0.9-1.7-1.6-2.4c-0.7-0.7-1.5-1.2-2.5-1.5c-1-0.4-2.1-0.6-3.3-0.6
						c-1.2,0-2.3,0.2-3.3,0.6c-1,0.3-1.8,0.9-2.5,1.5c-0.7,0.7-1.2,1.4-1.6,2.4c-0.4,0.9-0.6,1.9-0.6,3v11.5h4.5v-7.3h6.9v7.3h4.4
						V47C49.2,45.9,49,44.9,48.7,44z M37.8,47.3c0-0.5,0.1-0.9,0.2-1.4c0.1-0.4,0.3-0.8,0.6-1.2c0.3-0.4,0.6-0.7,1.1-0.9
						c0.4-0.2,1-0.3,1.6-0.3c0.6,0,1.2,0.1,1.6,0.3c0.5,0.2,0.8,0.5,1.1,0.9c0.3,0.3,0.5,0.8,0.6,1.2s0.2,0.9,0.2,1.4H37.8z"/>
				</g>
			</g>
		</g>
		<polygon class="st9" points="91.2,47.3 91.2,51.3 85.8,51.3 85.8,58.5 81.5,58.5 81.5,51.3 74.6,51.3 74.6,58.5 70.3,58.5 
			70.3,40.1 74.6,40.1 74.6,47.3 81.5,47.3 81.5,40.1 85.8,40.1 85.8,47.3 		"/>
	</g>
</g>
</svg>
